<svg width="37" height="43" viewBox="0 0 37 43" fill="none" xmlns="http://www.w3.org/2000/svg">
<path d="M0 6C0 2.68629 2.68628 0 6 0C8.06921 0 9.89374 1.04742 10.9724 2.64099C11.2225 2.86996 11.4565 3.12334 11.671 3.40067L34.8192 33.3237C36.8467 35.9447 36.3657 39.7131 33.7446 41.7407C31.1237 43.7682 27.3552 43.2872 25.3277 40.6662L12 23.4378V37C12 40.3137 9.31372 43 6 43C2.68628 43 0 40.3137 0 37V6Z" fill="url(#paint0_linear_553_50)"/>
<path d="M30 0C26.6863 0 24 2.68629 24 6C24 9.31371 26.6863 12 30 12C33.3137 12 36 9.31371 36 6C36 2.68629 33.3137 0 30 0Z" fill="url(#paint1_linear_553_50)"/>
<defs>
<linearGradient id="paint0_linear_553_50" x1="18.0369" y1="0" x2="18" y2="48" gradientUnits="userSpaceOnUse">
<stop stop-color="#00A9FF"/>
<stop offset="1" stop-color="#AEFFFF"/>
</linearGradient>
<linearGradient id="paint1_linear_553_50" x1="18.0369" y1="0" x2="18" y2="48" gradientUnits="userSpaceOnUse">
<stop stop-color="#00A9FF"/>
<stop offset="1" stop-color="#AEFFFF"/>
</linearGradient>
</defs>
</svg>
