<svg width="239" height="77" viewBox="0 0 239 77" fill="none" xmlns="http://www.w3.org/2000/svg">
<path d="M0 9.57666C0 4.29045 4.2853 0.00512695 9.57153 0.00512695C12.8725 0.00512695 15.783 1.67604 17.5037 4.21818C17.9027 4.58345 18.276 4.98765 18.6183 5.43006L55.5454 53.1649C58.78 57.3461 58.0125 63.3577 53.8313 66.5921C49.6502 69.8266 43.6386 69.0592 40.4042 64.8781L19.1431 37.3944V59.0296C19.1431 64.3158 14.8578 68.6011 9.57153 68.6011C4.2853 68.6011 0 64.3158 0 59.0296V9.57666Z" fill="white"/>
<path d="M47.8577 0.00512695C42.5714 0.00512695 38.2861 4.29045 38.2861 9.57666C38.2861 14.8629 42.5714 19.1482 47.8577 19.1482C53.1439 19.1482 57.4292 14.8629 57.4292 9.57666C57.4292 4.29045 53.1439 0.00512695 47.8577 0.00512695Z" fill="white"/>
<path d="M82.0245 63.0899C80.0251 63.0899 78.0257 62.707 76.0263 61.9413C74.0694 61.1331 72.2828 60.0057 70.6662 58.5594C69.0497 57.113 67.7735 55.3901 66.8376 53.3907C65.9017 51.3488 65.4338 49.0942 65.4338 46.6269C65.4338 44.3297 65.8592 42.2027 66.71 40.2458C67.5608 38.2465 68.7519 36.481 70.2834 34.9496C71.8148 33.4181 73.559 32.227 75.5158 31.3762C77.5152 30.4829 79.6422 30.0362 81.8968 30.0362C84.9597 30.0362 87.7248 30.7807 90.1922 32.2696C92.702 33.7159 94.7014 35.694 96.1903 38.2039C97.6792 40.7138 98.4237 43.5002 98.4237 46.5631C98.4237 49.158 97.9345 51.4764 96.9561 53.5184C96.0202 55.5178 94.744 57.2406 93.1274 58.687C91.5534 60.1334 89.788 61.2394 87.8312 62.0051C85.9169 62.7283 83.9813 63.0899 82.0245 63.0899ZM81.8968 53.4546C82.9178 53.4546 83.96 53.1993 85.0235 52.6888C86.087 52.1784 86.9804 51.4126 87.7036 50.3917C88.4267 49.3707 88.7883 48.0732 88.7883 46.4992C88.7883 45.138 88.4906 43.9468 87.895 42.9259C87.2994 41.9049 86.4699 41.1179 85.4064 40.5649C84.3854 39.9693 83.1943 39.6715 81.833 39.6715C80.5568 39.6715 79.4082 39.9693 78.3873 40.5649C77.4088 41.1605 76.6006 41.99 75.9625 43.0535C75.3669 44.0745 75.0691 45.2443 75.0691 46.5631C75.0691 48.0945 75.4095 49.392 76.0901 50.4555C76.8133 51.4764 77.7066 52.2422 78.7701 52.7526C79.8336 53.2206 80.8759 53.4546 81.8968 53.4546ZM115.737 62.8347C114.716 62.8347 113.844 62.6432 113.12 62.2604C112.397 61.8775 111.823 61.2819 111.398 60.4737L99.9118 37.5658C99.146 36.0344 98.9121 34.7794 99.2098 33.801C99.5502 32.78 100.529 31.8654 102.145 31.0572C103.762 30.2914 105.038 30.0362 105.974 30.2914C106.952 30.5041 107.824 31.4826 108.59 33.2267L115.737 49.8812L122.883 33.482C123.692 31.6527 124.564 30.5892 125.5 30.2914C126.436 29.9937 127.754 30.2702 129.456 31.121C131.2 31.9292 132.157 32.8864 132.327 33.9924C132.54 35.0559 132.285 36.2896 131.562 37.6934L120.14 60.4737C119.757 61.2819 119.204 61.8775 118.481 62.2604C117.757 62.6432 116.843 62.8347 115.737 62.8347ZM150.333 63.1537C147.355 63.1537 144.782 62.6645 142.612 61.6861C140.485 60.7077 138.741 59.4314 137.38 57.8575C136.019 56.2409 134.998 54.4542 134.317 52.4974C133.679 50.5406 133.36 48.5837 133.36 46.6269C133.36 43.4364 134.083 40.6074 135.529 38.1401C136.976 35.6728 138.975 33.7372 141.527 32.3334C144.08 30.887 147.015 30.1638 150.333 30.1638C152.801 30.1638 154.928 30.568 156.714 31.3762C158.544 32.1419 160.032 33.1629 161.181 34.4391C162.372 35.6728 163.244 37.0128 163.797 38.4592C164.393 39.9055 164.691 41.2881 164.691 42.6068C164.691 44.9465 164.116 46.6907 162.968 47.8393C161.862 48.9453 160.437 49.4983 158.692 49.4983H143.506C143.591 50.6044 143.974 51.5402 144.654 52.306C145.377 53.0717 146.271 53.6673 147.334 54.0927C148.398 54.5181 149.525 54.7308 150.716 54.7308C151.737 54.7308 152.63 54.6882 153.396 54.6031C154.162 54.4755 154.821 54.3266 155.374 54.1565C155.927 53.9438 156.438 53.7523 156.906 53.5822C157.374 53.3695 157.778 53.1993 158.118 53.0717C158.501 52.9441 158.863 52.859 159.203 52.8165C159.841 52.7739 160.415 52.9653 160.926 53.3907C161.479 53.7736 161.968 54.3692 162.393 55.1774C162.691 55.6454 162.883 56.092 162.968 56.5174C163.095 56.9428 163.159 57.3683 163.159 57.7937C163.159 58.8146 162.627 59.7292 161.564 60.5375C160.543 61.3458 159.075 61.9839 157.161 62.4518C155.289 62.9197 153.013 63.1537 150.333 63.1537ZM143.506 44.2659H153.588C154.268 44.2659 154.757 44.1595 155.055 43.9468C155.396 43.6916 155.566 43.2236 155.566 42.543C155.566 41.7773 155.332 41.1179 154.864 40.5649C154.396 39.9693 153.758 39.5227 152.95 39.2249C152.184 38.8846 151.29 38.7144 150.269 38.7144C148.951 38.7144 147.781 38.9696 146.76 39.4801C145.739 39.9906 144.931 40.6712 144.335 41.522C143.782 42.3728 143.506 43.2875 143.506 44.2659ZM196.603 62.5156C195.029 62.5156 193.582 62.3454 192.264 62.0051C190.987 61.7073 189.86 61.2394 188.882 60.6013C187.946 59.9207 187.138 59.0911 186.457 58.1127C185.819 57.1343 185.33 56.007 184.989 54.7308C184.691 53.4546 184.543 52.0082 184.543 50.3917L184.479 20.8475C184.479 19.9967 184.543 19.2097 184.67 18.4865C184.84 17.7634 185.266 17.1678 185.946 16.6999C186.627 16.2319 187.754 15.998 189.328 15.998C190.86 15.998 191.945 16.2319 192.583 16.6999C193.263 17.1678 193.689 17.7634 193.859 18.4865C194.029 19.2097 194.114 19.9967 194.114 20.8475V50.5831C194.114 51.0085 194.157 51.3701 194.242 51.6679C194.327 51.9657 194.454 52.2209 194.625 52.4336C194.837 52.6038 195.114 52.7314 195.454 52.8165C195.794 52.9015 196.22 52.9441 196.73 52.9441C197.879 52.9441 198.815 53.093 199.538 53.3907C200.261 53.6885 200.772 54.199 201.069 54.9222C201.41 55.6454 201.58 56.5813 201.58 57.7298C201.58 58.8359 201.388 59.7505 201.006 60.4737C200.665 61.1543 200.134 61.6648 199.41 62.0051C198.687 62.3454 197.751 62.5156 196.603 62.5156ZM179.374 62.5156C177.842 62.5156 176.481 62.3667 175.29 62.0689C174.142 61.7712 173.142 61.3245 172.291 60.7289C171.44 60.0908 170.738 59.3038 170.185 58.3679C169.632 57.3895 169.207 56.2409 168.909 54.9222C168.654 53.6034 168.526 52.0933 168.526 50.3917V20.8475C168.526 19.9967 168.611 19.2097 168.781 18.4865C168.952 17.7634 169.356 17.1678 169.994 16.6999C170.674 16.2319 171.802 15.998 173.376 15.998C174.907 15.998 175.992 16.2319 176.63 16.6999C177.311 17.1678 177.736 17.7634 177.906 18.4865C178.076 19.2097 178.162 19.9967 178.162 20.8475V50.5831C178.162 51.1361 178.225 51.5828 178.353 51.9231C178.481 52.2634 178.651 52.5187 178.863 52.6888C179.076 52.859 179.246 52.9441 179.374 52.9441C180.352 52.9441 181.118 53.093 181.671 53.3907C182.224 53.6885 182.628 54.199 182.884 54.9222C183.139 55.6454 183.266 56.5813 183.266 57.7298C183.266 58.8359 183.117 59.7505 182.82 60.4737C182.564 61.1543 182.139 61.6648 181.543 62.0051C180.99 62.3454 180.267 62.5156 179.374 62.5156ZM231.457 62.5156C229.883 62.5156 228.713 62.2391 227.947 61.6861C227.224 61.1331 226.863 60.4524 226.863 59.6441L227.501 58.5594C227.246 58.9848 226.756 59.5165 226.033 60.1546C225.31 60.7502 224.374 61.3032 223.226 61.8137C222.077 62.2816 220.652 62.5156 218.95 62.5156C216.993 62.5156 215.122 62.0902 213.335 61.2394C211.591 60.3886 210.038 59.2187 208.677 57.7298C207.316 56.1984 206.231 54.4755 205.422 52.5612C204.657 50.6469 204.274 48.6262 204.274 46.4992C204.274 44.4148 204.657 42.4367 205.422 40.5649C206.231 38.6506 207.316 36.9702 208.677 35.5239C210.081 34.035 211.655 32.8651 213.399 32.0143C215.143 31.1635 216.993 30.7381 218.95 30.7381C220.524 30.7381 221.864 30.9721 222.97 31.44C224.076 31.8654 224.991 32.3759 225.714 32.9715C226.48 33.567 227.054 34.1413 227.437 34.6943L226.927 33.801C226.884 32.78 227.224 32.0143 227.947 31.5038C228.713 30.9508 229.904 30.6743 231.521 30.6743C233.052 30.6743 234.137 30.9083 234.775 31.3762C235.456 31.8442 235.86 32.461 235.988 33.2267C236.158 33.9924 236.243 34.8007 236.243 35.6515V57.666C236.243 58.4743 236.158 59.2613 235.988 60.027C235.86 60.7927 235.456 61.4096 234.775 61.8775C234.137 62.3029 233.031 62.5156 231.457 62.5156ZM220.354 53.0079C221.46 53.0079 222.46 52.7314 223.353 52.1784C224.289 51.5828 225.012 50.7958 225.523 49.8174C226.076 48.8389 226.352 47.7542 226.352 46.5631C226.352 45.3294 226.076 44.2446 225.523 43.3087C224.97 42.3303 224.225 41.5646 223.289 41.0116C222.353 40.416 221.332 40.1182 220.226 40.1182C218.993 40.1182 217.887 40.416 216.908 41.0116C215.972 41.6071 215.207 42.3941 214.611 43.3725C214.058 44.351 213.782 45.457 213.782 46.6907C213.782 47.8393 214.058 48.9028 214.611 49.8812C215.207 50.8171 215.994 51.5828 216.972 52.1784C217.993 52.7314 219.12 53.0079 220.354 53.0079Z" fill="white"/>
</svg>
