<svg width="151" height="48" viewBox="0 0 151 48" fill="none" xmlns="http://www.w3.org/2000/svg">
<path d="M0 6C0 2.68629 2.68628 0 6 0C8.06921 0 9.89374 1.04742 10.9724 2.64099C11.2225 2.86996 11.4565 3.12334 11.671 3.40067L34.8192 33.3237C36.8467 35.9447 36.3657 39.7131 33.7446 41.7407C31.1237 43.7682 27.3552 43.2872 25.3277 40.6662L12 23.4378V37C12 40.3137 9.31372 43 6 43C2.68628 43 0 40.3137 0 37V6Z" fill="url(#paint0_linear_553_52)"/>
<path d="M30 0C26.6863 0 24 2.68629 24 6C24 9.31371 26.6863 12 30 12C33.3137 12 36 9.31371 36 6C36 2.68629 33.3137 0 30 0Z" fill="url(#paint1_linear_553_52)"/>
<path d="M51.5676 39.68C50.3143 39.68 49.0609 39.44 47.8076 38.96C46.5809 38.4533 45.4609 37.7467 44.4476 36.84C43.4343 35.9333 42.6343 34.8533 42.0476 33.6C41.4609 32.32 41.1676 30.9067 41.1676 29.36C41.1676 27.92 41.4343 26.5867 41.9676 25.36C42.5009 24.1067 43.2476 23 44.2076 22.04C45.1676 21.08 46.2609 20.3333 47.4876 19.8C48.7409 19.24 50.0743 18.96 51.4876 18.96C53.4076 18.96 55.1409 19.4267 56.6876 20.36C58.2609 21.2667 59.5143 22.5067 60.4476 24.08C61.3809 25.6533 61.8476 27.4 61.8476 29.32C61.8476 30.9467 61.5409 32.4 60.9276 33.68C60.3409 34.9333 59.5409 36.0133 58.5276 36.92C57.5409 37.8267 56.4343 38.52 55.2076 39C54.0076 39.4533 52.7943 39.68 51.5676 39.68ZM51.4876 33.64C52.1276 33.64 52.7809 33.48 53.4476 33.16C54.1143 32.84 54.6743 32.36 55.1276 31.72C55.5809 31.08 55.8076 30.2667 55.8076 29.28C55.8076 28.4267 55.6209 27.68 55.2476 27.04C54.8743 26.4 54.3543 25.9067 53.6876 25.56C53.0476 25.1867 52.3009 25 51.4476 25C50.6476 25 49.9276 25.1867 49.2876 25.56C48.6743 25.9333 48.1676 26.4533 47.7676 27.12C47.3943 27.76 47.2076 28.4933 47.2076 29.32C47.2076 30.28 47.4209 31.0933 47.8476 31.76C48.3009 32.4 48.8609 32.88 49.5276 33.2C50.1943 33.4933 50.8476 33.64 51.4876 33.64ZM72.7004 39.52C72.0604 39.52 71.5138 39.4 71.0604 39.16C70.6071 38.92 70.2471 38.5467 69.9804 38.04L62.7804 23.68C62.3004 22.72 62.1538 21.9333 62.3404 21.32C62.5538 20.68 63.1671 20.1067 64.1804 19.6C65.1938 19.12 65.9938 18.96 66.5804 19.12C67.1938 19.2533 67.7404 19.8667 68.2204 20.96L72.7004 31.4L77.1804 21.12C77.6871 19.9733 78.2338 19.3067 78.8204 19.12C79.4071 18.9333 80.2338 19.1067 81.3004 19.64C82.3938 20.1467 82.9938 20.7467 83.1004 21.44C83.2338 22.1067 83.0738 22.88 82.6204 23.76L75.4604 38.04C75.2204 38.5467 74.8738 38.92 74.4204 39.16C73.9671 39.4 73.3938 39.52 72.7004 39.52ZM94.3876 39.72C92.5209 39.72 90.9076 39.4133 89.5476 38.8C88.2143 38.1867 87.1209 37.3867 86.2676 36.4C85.4143 35.3867 84.7743 34.2667 84.3476 33.04C83.9476 31.8133 83.7476 30.5867 83.7476 29.36C83.7476 27.36 84.2009 25.5867 85.1076 24.04C86.0143 22.4933 87.2676 21.28 88.8676 20.4C90.4676 19.4933 92.3076 19.04 94.3876 19.04C95.9343 19.04 97.2676 19.2933 98.3876 19.8C99.5343 20.28 100.468 20.92 101.188 21.72C101.934 22.4933 102.481 23.3333 102.828 24.24C103.201 25.1467 103.388 26.0133 103.388 26.84C103.388 28.3067 103.028 29.4 102.308 30.12C101.614 30.8133 100.721 31.16 99.6276 31.16H90.1076C90.1609 31.8533 90.4009 32.44 90.8276 32.92C91.2809 33.4 91.8409 33.7733 92.5076 34.04C93.1743 34.3067 93.8809 34.44 94.6276 34.44C95.2676 34.44 95.8276 34.4133 96.3076 34.36C96.7876 34.28 97.2009 34.1867 97.5476 34.08C97.8943 33.9467 98.2143 33.8267 98.5076 33.72C98.8009 33.5867 99.0543 33.48 99.2676 33.4C99.5076 33.32 99.7343 33.2667 99.9476 33.24C100.348 33.2133 100.708 33.3333 101.028 33.6C101.374 33.84 101.681 34.2133 101.948 34.72C102.134 35.0133 102.254 35.2933 102.308 35.56C102.388 35.8267 102.428 36.0933 102.428 36.36C102.428 37 102.094 37.5733 101.428 38.08C100.788 38.5867 99.8676 38.9867 98.6676 39.28C97.4943 39.5733 96.0676 39.72 94.3876 39.72ZM90.1076 27.88H96.4276C96.8543 27.88 97.1609 27.8133 97.3476 27.68C97.5609 27.52 97.6676 27.2267 97.6676 26.8C97.6676 26.32 97.5209 25.9067 97.2276 25.56C96.9343 25.1867 96.5343 24.9067 96.0276 24.72C95.5476 24.5067 94.9876 24.4 94.3476 24.4C93.5209 24.4 92.7876 24.56 92.1476 24.88C91.5076 25.2 91.0009 25.6267 90.6276 26.16C90.2809 26.6933 90.1076 27.2667 90.1076 27.88ZM123.392 39.32C122.405 39.32 121.499 39.2133 120.672 39C119.872 38.8133 119.165 38.52 118.552 38.12C117.965 37.6933 117.459 37.1733 117.032 36.56C116.632 35.9467 116.325 35.24 116.112 34.44C115.925 33.64 115.832 32.7333 115.832 31.72L115.792 13.2C115.792 12.6667 115.832 12.1733 115.912 11.72C116.019 11.2667 116.285 10.8933 116.712 10.6C117.139 10.3067 117.845 10.16 118.832 10.16C119.792 10.16 120.472 10.3067 120.872 10.6C121.299 10.8933 121.565 11.2667 121.672 11.72C121.779 12.1733 121.832 12.6667 121.832 13.2V31.84C121.832 32.1067 121.859 32.3333 121.912 32.52C121.965 32.7067 122.045 32.8667 122.152 33C122.285 33.1067 122.459 33.1867 122.672 33.24C122.885 33.2933 123.152 33.32 123.472 33.32C124.192 33.32 124.779 33.4133 125.232 33.6C125.685 33.7867 126.005 34.1067 126.192 34.56C126.405 35.0133 126.512 35.6 126.512 36.32C126.512 37.0133 126.392 37.5867 126.152 38.04C125.939 38.4667 125.605 38.7867 125.152 39C124.699 39.2133 124.112 39.32 123.392 39.32ZM112.592 39.32C111.632 39.32 110.779 39.2267 110.032 39.04C109.312 38.8533 108.685 38.5733 108.152 38.2C107.619 37.8 107.179 37.3067 106.832 36.72C106.485 36.1067 106.219 35.3867 106.032 34.56C105.872 33.7333 105.792 32.7867 105.792 31.72V13.2C105.792 12.6667 105.845 12.1733 105.952 11.72C106.059 11.2667 106.312 10.8933 106.712 10.6C107.139 10.3067 107.845 10.16 108.832 10.16C109.792 10.16 110.472 10.3067 110.872 10.6C111.299 10.8933 111.565 11.2667 111.672 11.72C111.779 12.1733 111.832 12.6667 111.832 13.2V31.84C111.832 32.1867 111.872 32.4667 111.952 32.68C112.032 32.8933 112.139 33.0533 112.272 33.16C112.405 33.2667 112.512 33.32 112.592 33.32C113.205 33.32 113.685 33.4133 114.032 33.6C114.379 33.7867 114.632 34.1067 114.792 34.56C114.952 35.0133 115.032 35.6 115.032 36.32C115.032 37.0133 114.939 37.5867 114.752 38.04C114.592 38.4667 114.325 38.7867 113.952 39C113.605 39.2133 113.152 39.32 112.592 39.32ZM145.241 39.32C144.254 39.32 143.521 39.1467 143.041 38.8C142.587 38.4533 142.361 38.0267 142.361 37.52L142.761 36.84C142.601 37.1067 142.294 37.44 141.841 37.84C141.387 38.2133 140.801 38.56 140.081 38.88C139.361 39.1733 138.467 39.32 137.401 39.32C136.174 39.32 135.001 39.0533 133.881 38.52C132.787 37.9867 131.814 37.2533 130.961 36.32C130.107 35.36 129.427 34.28 128.921 33.08C128.441 31.88 128.201 30.6133 128.201 29.28C128.201 27.9733 128.441 26.7333 128.921 25.56C129.427 24.36 130.107 23.3067 130.961 22.4C131.841 21.4667 132.827 20.7333 133.921 20.2C135.014 19.6667 136.174 19.4 137.401 19.4C138.387 19.4 139.227 19.5467 139.921 19.84C140.614 20.1067 141.187 20.4267 141.641 20.8C142.121 21.1733 142.481 21.5333 142.721 21.88L142.401 21.32C142.374 20.68 142.587 20.2 143.041 19.88C143.521 19.5333 144.267 19.36 145.281 19.36C146.241 19.36 146.921 19.5067 147.321 19.8C147.747 20.0933 148.001 20.48 148.081 20.96C148.187 21.44 148.241 21.9467 148.241 22.48V36.28C148.241 36.7867 148.187 37.28 148.081 37.76C148.001 38.24 147.747 38.6267 147.321 38.92C146.921 39.1867 146.227 39.32 145.241 39.32ZM138.281 33.36C138.974 33.36 139.601 33.1867 140.161 32.84C140.747 32.4667 141.201 31.9733 141.521 31.36C141.867 30.7467 142.041 30.0667 142.041 29.32C142.041 28.5467 141.867 27.8667 141.521 27.28C141.174 26.6667 140.707 26.1867 140.121 25.84C139.534 25.4667 138.894 25.28 138.201 25.28C137.427 25.28 136.734 25.4667 136.121 25.84C135.534 26.2133 135.054 26.7067 134.681 27.32C134.334 27.9333 134.161 28.6267 134.161 29.4C134.161 30.12 134.334 30.7867 134.681 31.4C135.054 31.9867 135.547 32.4667 136.161 32.84C136.801 33.1867 137.507 33.36 138.281 33.36Z" fill="#00A9FF"/>
<defs>
<linearGradient id="paint0_linear_553_52" x1="18.0369" y1="0" x2="18" y2="48" gradientUnits="userSpaceOnUse">
<stop stop-color="#00A9FF"/>
<stop offset="1" stop-color="#AEFFFF"/>
</linearGradient>
<linearGradient id="paint1_linear_553_52" x1="18.0369" y1="0" x2="18" y2="48" gradientUnits="userSpaceOnUse">
<stop stop-color="#00A9FF"/>
<stop offset="1" stop-color="#AEFFFF"/>
</linearGradient>
</defs>
</svg>
